<?xml version="1.0" encoding="utf-8"?>
<!-- Generator: Adobe Illustrator 24.0.2, SVG Export Plug-In . SVG Version: 6.00 Build 0)  -->
<svg version="1.1" id="Capa_1" xmlns="http://www.w3.org/2000/svg" xmlns:xlink="http://www.w3.org/1999/xlink" x="0px" y="0px"
	 viewBox="0 0 100 100" style="enable-background:new 0 0 100 100;" xml:space="preserve">
<style type="text/css">
	.st0{fill:#246DFF;}
	.st1{fill:#20A34E;}
	.st2{fill:#F86606;}
</style>
<path class="st0" d="M57.1,0h41.1c0.8,0,1.5,0.7,1.5,1.5v62.9c0,1.5-2,2.1-2.8,0.8L55.8,2.3C55.2,1.3,55.9,0,57.1,0z"/>
<path class="st1" d="M42.4,0H1.3C0.4,0-0.3,0.7-0.3,1.5v62.9c0,1.5,2,2.1,2.8,0.8L43.7,2.3C44.3,1.3,43.6,0,42.4,0z"/>
<path class="st2" d="M49,50.3L2.3,97.4c-0.9,1-0.3,2.6,1.1,2.6h92.8c1.3,0,2-1.6,1.1-2.6l-46-47.1C50.6,49.7,49.6,49.7,49,50.3z"/>
</svg>
